# Blender v3.5.1 OBJ File: 'mesa.blend'
# www.blender.org
o Cylinder.001
v 2.103173 1.061310 -0.006763
v 2.201350 1.061568 -0.005900
v 2.102679 1.055602 0.051189
v 2.200856 1.055859 0.052052
v 2.102234 1.038696 0.106914
v 2.200411 1.038953 0.107776
v 2.101855 1.011242 0.158270
v 2.200032 1.011500 0.159133
v 2.101556 0.974295 0.203285
v 2.199733 0.974553 0.204147
v 2.101350 0.929276 0.240228
v 2.199527 0.929533 0.241090
v 2.101243 0.877913 0.267679
v 2.199420 0.878171 0.268542
v 2.101241 0.822182 0.284584
v 2.199418 0.822440 0.285447
v 2.101343 0.764223 0.290293
v 2.199520 0.764481 0.291156
v 2.101545 0.706264 0.284587
v 2.199722 0.706522 0.285449
v 2.101840 0.650533 0.267684
v 2.200017 0.650790 0.268547
v 2.102216 0.599170 0.240235
v 2.200393 0.599428 0.241098
v 2.102659 0.554151 0.203294
v 2.200835 0.554408 0.204157
v 2.103151 0.517204 0.158281
v 2.201328 0.517462 0.159144
v 2.103674 0.489750 0.106926
v 2.201851 0.490008 0.107789
v 2.104208 0.472844 0.051202
v 2.202385 0.473102 0.052065
v 2.104733 0.467136 -0.006749
v 2.202909 0.467394 -0.005886
v 2.105227 0.472844 -0.064700
v 2.203403 0.473102 -0.063838
v 2.105672 0.489750 -0.120425
v 2.203849 0.490008 -0.119562
v 2.106051 0.517204 -0.171781
v 2.204228 0.517462 -0.170919
v 2.106350 0.554151 -0.216796
v 2.204526 0.554408 -0.215933
v 2.106556 0.599170 -0.253739
v 2.204733 0.599428 -0.252876
v 2.106663 0.650533 -0.281190
v 2.204839 0.650790 -0.280328
v 2.106665 0.706264 -0.298095
v 2.204842 0.706522 -0.297233
v 2.106563 0.764223 -0.303804
v 2.204740 0.764481 -0.302942
v 2.106361 0.822182 -0.298098
v 2.204537 0.822440 -0.297236
v 2.106066 0.877913 -0.281196
v 2.204243 0.878171 -0.280333
v 2.105690 0.929276 -0.253747
v 2.203867 0.929533 -0.252884
v 2.105247 0.974295 -0.216806
v 2.203424 0.974553 -0.215943
v 2.104755 1.011242 -0.171793
v 2.202932 1.011500 -0.170930
v 2.104231 1.038696 -0.120438
v 2.202408 1.038953 -0.119575
v 2.103698 1.055602 -0.064714
v 2.201874 1.055859 -0.063851
v 2.203744 0.764481 -0.189647
v 2.203806 0.694178 -0.175658
v 2.203807 0.728641 -0.186115
v 2.203619 0.800321 -0.186117
v 2.203740 0.662417 -0.158676
v 2.203204 0.866544 -0.158681
v 2.203437 0.834783 -0.175661
v 2.202930 0.894383 -0.135830
v 2.203428 0.611732 -0.107978
v 2.203193 0.594755 -0.076209
v 2.202626 0.917230 -0.107985
v 2.201972 0.944661 -0.041746
v 2.201342 0.944661 0.029951
v 2.201648 0.948191 -0.005897
v 2.202302 0.934206 -0.076217
v 2.203612 0.634578 -0.135824
v 2.202918 0.584301 -0.041738
v 2.202288 0.584301 0.029960
v 2.202612 0.580771 -0.005889
v 2.200832 0.917230 0.096191
v 2.201634 0.611732 0.096198
v 2.201066 0.934206 0.064422
v 2.201957 0.594755 0.064430
v 2.200520 0.866544 0.146890
v 2.201055 0.662417 0.146895
v 2.200647 0.894383 0.124037
v 2.200515 0.764481 0.177861
v 2.200452 0.800321 0.174329
v 2.200823 0.694178 0.163875
v 2.200640 0.728641 0.174331
v 2.200454 0.834783 0.163871
v 2.201329 0.634578 0.124043
v 2.103471 0.947933 -0.006760
v 2.103165 0.944403 0.029089
v 2.103781 0.594497 0.063568
v 2.102655 0.916972 0.095329
v 2.103457 0.611474 0.095336
v 2.104111 0.584043 0.029097
v 2.102890 0.933949 0.063560
v 2.102878 0.662159 0.146032
v 2.103152 0.634321 0.123181
v 2.102343 0.866287 0.146028
v 2.102339 0.764223 0.176998
v 2.102275 0.800063 0.173466
v 2.102646 0.693920 0.163012
v 2.102463 0.728383 0.173468
v 2.102277 0.834526 0.163009
v 2.102470 0.894126 0.123175
v 2.105567 0.764223 -0.190509
v 2.105629 0.693920 -0.176520
v 2.105630 0.728383 -0.186978
v 2.105442 0.800063 -0.186979
v 2.105563 0.662159 -0.159539
v 2.105027 0.866287 -0.159544
v 2.105435 0.634321 -0.136686
v 2.105260 0.834526 -0.176524
v 2.104125 0.933949 -0.077079
v 2.105251 0.611474 -0.108840
v 2.104449 0.916972 -0.108847
v 2.103795 0.944403 -0.042608
v 2.104435 0.580513 -0.006751
v 2.104741 0.584043 -0.042600
v 2.105016 0.594497 -0.077071
v 2.104754 0.894126 -0.136692
vt 1.000000 1.000000
vt 1.000000 0.500000
vt 0.968750 0.500000
vt 0.968750 1.000000
vt 0.937500 0.500000
vt 0.937500 1.000000
vt 0.906250 0.500000
vt 0.906250 1.000000
vt 0.875000 0.500000
vt 0.875000 1.000000
vt 0.843750 0.500000
vt 0.843750 1.000000
vt 0.812500 0.500000
vt 0.812500 1.000000
vt 0.781250 0.500000
vt 0.781250 1.000000
vt 0.750000 0.500000
vt 0.750000 1.000000
vt 0.718750 0.500000
vt 0.718750 1.000000
vt 0.687500 0.500000
vt 0.687500 1.000000
vt 0.656250 0.500000
vt 0.656250 1.000000
vt 0.625000 0.500000
vt 0.625000 1.000000
vt 0.593750 0.500000
vt 0.593750 1.000000
vt 0.562500 0.500000
vt 0.562500 1.000000
vt 0.531250 0.500000
vt 0.531250 1.000000
vt 0.500000 0.500000
vt 0.500000 1.000000
vt 0.468750 0.500000
vt 0.468750 1.000000
vt 0.437500 0.500000
vt 0.437500 1.000000
vt 0.406250 0.500000
vt 0.406250 1.000000
vt 0.375000 0.500000
vt 0.375000 1.000000
vt 0.343750 0.500000
vt 0.343750 1.000000
vt 0.312500 0.500000
vt 0.312500 1.000000
vt 0.281250 0.500000
vt 0.281250 1.000000
vt 0.250000 0.500000
vt 0.250000 1.000000
vt 0.218750 0.500000
vt 0.218750 1.000000
vt 0.187500 0.500000
vt 0.187500 1.000000
vt 0.156250 0.500000
vt 0.156250 1.000000
vt 0.125000 0.500000
vt 0.125000 1.000000
vt 0.093750 0.500000
vt 0.093750 1.000000
vt 0.062500 0.500000
vt 0.193186 0.112888
vt 0.116663 0.050447
vt 0.167518 0.126603
vt 0.341844 0.471731
vt 0.306815 0.387112
vt 0.278964 0.395557
vt 0.062500 1.000000
vt 0.031250 0.500000
vt 0.031250 1.000000
vt 0.000000 0.500000
vt 0.796822 0.014612
vt 0.778964 0.104443
vt 0.750000 0.101591
vt 0.703178 0.485388
vt 0.721036 0.395557
vt 0.750000 0.398409
vt 0.968750 0.815304
vt 0.968750 0.684696
vt 1.000000 0.684696
vt 0.937500 0.815304
vt 0.937500 0.684696
vt 0.906250 0.815304
vt 0.906250 0.684696
vt 0.875000 0.815304
vt 0.875000 0.684696
vt 0.843750 0.815304
vt 0.843750 0.684696
vt 0.812500 0.815304
vt 0.812500 0.684696
vt 0.781250 0.815304
vt 0.781250 0.684696
vt 0.750000 0.815304
vt 0.750000 0.684696
vt 0.718750 0.815304
vt 0.718750 0.684696
vt 0.687500 0.815304
vt 0.687500 0.684696
vt 0.656250 0.815304
vt 0.656250 0.684696
vt 0.625000 0.815304
vt 0.625000 0.684696
vt 0.593750 0.815304
vt 0.593750 0.684696
vt 0.562500 0.815304
vt 0.562500 0.684696
vt 0.531250 0.815304
vt 0.531250 0.684696
vt 0.500000 0.815304
vt 0.500000 0.684696
vt 0.468750 0.815304
vt 0.468750 0.684696
vt 0.437500 0.815304
vt 0.437500 0.684696
vt 0.406250 0.815304
vt 0.406250 0.684696
vt 0.375000 0.815304
vt 0.375000 0.684696
vt 0.343750 0.815304
vt 0.343750 0.684696
vt 0.312500 0.815304
vt 0.312500 0.684696
vt 0.281250 0.815304
vt 0.281250 0.684696
vt 0.250000 0.815304
vt 0.250000 0.684696
vt 0.218750 0.815304
vt 0.218750 0.684696
vt 0.187500 0.815304
vt 0.187500 0.684696
vt 0.156250 0.815304
vt 0.156250 0.684696
vt 0.125000 0.815304
vt 0.125000 0.684696
vt 0.093750 0.815304
vt 0.093750 0.684696
vt 0.062500 0.815304
vt 0.062500 0.684696
vt 0.031250 0.815304
vt 0.031250 0.684696
vt 0.000000 0.815304
vt 0.000000 0.684696
vt 0.112838 0.306794
vt 0.014612 0.296822
vt 0.028269 0.341844
vt 0.104389 0.278953
vt 0.010000 0.250000
vt 0.104389 0.221047
vt 0.014612 0.203178
vt 0.101537 0.250000
vt 0.112838 0.193206
vt 0.028269 0.158156
vt 0.126557 0.167548
vt 0.050447 0.116663
vt 0.145021 0.145059
vt 0.080294 0.080294
vt 0.158156 0.028269
vt 0.221036 0.104443
vt 0.203178 0.014612
vt 0.250000 0.101591
vt 0.250000 0.010000
vt 0.296822 0.014612
vt 0.278964 0.104443
vt 0.341844 0.028269
vt 0.306815 0.112888
vt 0.383337 0.050447
vt 0.332482 0.126603
vt 0.419706 0.080294
vt 0.354979 0.145059
vt 0.449553 0.116663
vt 0.373443 0.167548
vt 0.471731 0.158156
vt 0.387162 0.193206
vt 0.395611 0.221047
vt 0.485388 0.203178
vt 0.490000 0.250000
vt 0.398463 0.250000
vt 0.395611 0.278953
vt 0.485388 0.296822
vt 0.387162 0.306794
vt 0.471731 0.341844
vt 0.373443 0.332452
vt 0.449553 0.383337
vt 0.354979 0.354941
vt 0.419706 0.419706
vt 0.332482 0.373397
vt 0.383337 0.449553
vt 0.296822 0.485388
vt 0.250000 0.398409
vt 0.250000 0.490000
vt 0.203178 0.485388
vt 0.221036 0.395557
vt 0.158156 0.471731
vt 0.193186 0.387112
vt 0.116663 0.449553
vt 0.167518 0.373397
vt 0.080294 0.419706
vt 0.145021 0.354941
vt 0.050447 0.383337
vt 0.126557 0.332452
vt 0.000000 1.000000
vt 0.898463 0.250000
vt 0.990000 0.250000
vt 0.895611 0.278953
vt 0.985388 0.296822
vt 0.895611 0.221047
vt 0.985388 0.203178
vt 0.887162 0.193206
vt 0.971731 0.158156
vt 0.873443 0.167548
vt 0.949553 0.116663
vt 0.854979 0.145059
vt 0.919706 0.080294
vt 0.832482 0.126603
vt 0.883337 0.050447
vt 0.806814 0.112888
vt 0.841844 0.028269
vt 0.750000 0.010000
vt 0.703178 0.014612
vt 0.721036 0.104443
vt 0.658156 0.028269
vt 0.693185 0.112888
vt 0.616663 0.050447
vt 0.667518 0.126603
vt 0.580294 0.080294
vt 0.645021 0.145059
vt 0.550447 0.116663
vt 0.626557 0.167548
vt 0.528269 0.158156
vt 0.612838 0.193206
vt 0.514612 0.203178
vt 0.604389 0.221047
vt 0.601537 0.250000
vt 0.510000 0.250000
vt 0.604389 0.278953
vt 0.514612 0.296822
vt 0.612838 0.306794
vt 0.528269 0.341844
vt 0.626557 0.332452
vt 0.550447 0.383337
vt 0.645021 0.354941
vt 0.580294 0.419706
vt 0.667518 0.373397
vt 0.616663 0.449553
vt 0.693186 0.387112
vt 0.658156 0.471731
vt 0.750000 0.490000
vt 0.796822 0.485388
vt 0.778964 0.395557
vt 0.841844 0.471731
vt 0.806814 0.387112
vt 0.883337 0.449553
vt 0.832482 0.373397
vt 0.919706 0.419706
vt 0.854980 0.354941
vt 0.949553 0.383337
vt 0.873443 0.332452
vt 0.971731 0.341844
vt 0.887162 0.306794
vt 1.000000 0.815304
vn -0.0035 0.9952 0.0980
vn -0.0051 0.9569 0.2903
vn -0.0065 0.8819 0.4714
vn -0.0076 0.7730 0.6344
vn -0.0085 0.6344 0.7730
vn -0.0090 0.4714 0.8819
vn -0.0092 0.2903 0.9569
vn -0.0090 0.0980 0.9951
vn -0.0085 -0.0980 0.9951
vn -0.0076 -0.2903 0.9569
vn -0.0065 -0.4714 0.8819
vn -0.0051 -0.6344 0.7730
vn -0.0035 -0.7730 0.6344
vn -0.0018 -0.8819 0.4714
vn -0.0000 -0.9569 0.2903
vn 0.0018 -0.9952 0.0980
vn 0.0035 -0.9952 -0.0980
vn 0.0051 -0.9569 -0.2903
vn 0.0065 -0.8819 -0.4714
vn 0.0076 -0.7730 -0.6344
vn 0.0085 -0.6344 -0.7730
vn 0.0090 -0.4714 -0.8819
vn 0.0092 -0.2903 -0.9569
vn 0.0090 -0.0980 -0.9951
vn 0.0085 0.0980 -0.9951
vn 0.0076 0.2903 -0.9569
vn 0.0065 0.4714 -0.8819
vn 0.0051 0.6344 -0.7730
vn 0.0035 0.7730 -0.6344
vn 0.0018 0.8819 -0.4714
vn 1.0000 0.0026 0.0088
vn 0.0000 0.9569 -0.2903
vn -0.0018 0.9952 -0.0980
vn -1.0000 -0.0026 -0.0088
vn 0.0051 -0.9570 -0.2902
vn 0.0065 -0.8820 -0.4713
vn 0.0076 -0.7731 -0.6342
vn 0.0085 -0.6345 -0.7729
vn 0.0090 -0.4715 -0.8818
vn 0.0092 -0.2904 -0.9569
vn 0.0076 0.2904 -0.9569
vn 0.0065 0.4715 -0.8818
vn 0.0051 0.6345 -0.7729
vn 0.0035 0.7731 -0.6343
vn 0.0018 0.8820 -0.4713
vn 0.0000 0.9570 -0.2902
vn -0.0051 0.9570 0.2902
vn -0.0065 0.8820 0.4713
vn -0.0076 0.7731 0.6342
vn -0.0085 0.6345 0.7729
vn -0.0090 0.4715 0.8818
vn -0.0092 0.2904 0.9569
vn -0.0076 -0.2904 0.9569
vn -0.0065 -0.4715 0.8818
vn -0.0051 -0.6345 0.7729
vn -0.0035 -0.7731 0.6343
vn -0.0018 -0.8820 0.4713
vn -0.0000 -0.9570 0.2902
s off
f 2/1/1 1/2/1 3/3/1
f 4/4/2 3/3/2 5/5/2
f 6/6/3 5/5/3 7/7/3
f 8/8/4 7/7/4 9/9/4
f 10/10/5 9/9/5 11/11/5
f 12/12/6 11/11/6 13/13/6
f 14/14/7 13/13/7 15/15/7
f 16/16/8 15/15/8 17/17/8
f 18/18/9 17/17/9 19/19/9
f 20/20/10 19/19/10 21/21/10
f 22/22/11 21/21/11 23/23/11
f 24/24/12 23/23/12 25/25/12
f 26/26/13 25/25/13 27/27/13
f 28/28/14 27/27/14 29/29/14
f 30/30/15 29/29/15 31/31/15
f 32/32/16 31/31/16 33/33/16
f 34/34/17 33/33/17 35/35/17
f 36/36/18 35/35/18 37/37/18
f 38/38/19 37/37/19 39/39/19
f 40/40/20 39/39/20 41/41/20
f 42/42/21 41/41/21 43/43/21
f 44/44/22 43/43/22 45/45/22
f 46/46/23 45/45/23 47/47/23
f 48/48/24 47/47/24 49/49/24
f 50/50/25 49/49/25 51/51/25
f 52/52/26 51/51/26 53/53/26
f 54/54/27 53/53/27 55/55/27
f 56/56/28 55/55/28 57/57/28
f 58/58/29 57/57/29 59/59/29
f 60/60/30 59/59/30 61/61/30
f 74/62/31 40/63/31 73/64/31
f 6/65/31 86/66/31 77/67/31
f 62/68/32 61/61/32 63/69/32
f 64/70/33 63/69/33 1/71/33
f 31/72/34 102/73/34 125/74/34
f 63/75/34 124/76/34 97/77/34
f 77/78/17 98/79/17 97/80/17
f 86/81/35 103/82/35 98/79/35
f 84/83/36 100/84/36 103/82/36
f 90/85/37 112/86/37 100/84/37
f 90/85/38 88/87/38 106/88/38
f 88/87/39 95/89/39 111/90/39
f 95/89/40 92/91/40 108/92/40
f 92/91/24 91/93/24 107/94/24
f 91/93/25 94/95/25 110/96/25
f 94/95/41 93/97/41 109/98/41
f 93/97/42 89/99/42 104/100/42
f 89/99/43 96/101/43 105/102/43
f 96/101/44 85/103/44 101/104/44
f 85/103/45 87/105/45 99/106/45
f 87/105/46 82/107/46 102/108/46
f 82/107/33 83/109/33 125/110/33
f 83/109/1 81/111/1 126/112/1
f 81/111/47 74/113/47 127/114/47
f 74/113/48 73/115/48 122/116/48
f 73/115/49 80/117/49 119/118/49
f 69/119/50 117/120/50 119/118/50
f 66/121/51 114/122/51 117/120/51
f 67/123/52 115/124/52 114/122/52
f 65/125/8 113/126/8 115/124/8
f 68/127/9 116/128/9 113/126/9
f 71/129/53 120/130/53 116/128/53
f 70/131/54 118/132/54 120/130/54
f 72/133/55 128/134/55 118/132/55
f 75/135/56 123/136/56 128/134/56
f 79/137/57 121/138/57 123/136/57
f 76/139/58 124/140/58 121/138/58
f 78/141/16 97/142/16 124/140/16
f 2/1/1 3/3/1 4/4/1
f 4/4/2 5/5/2 6/6/2
f 6/6/3 7/7/3 8/8/3
f 8/8/4 9/9/4 10/10/4
f 10/10/5 11/11/5 12/12/5
f 12/12/6 13/13/6 14/14/6
f 14/14/7 15/15/7 16/16/7
f 16/16/8 17/17/8 18/18/8
f 18/18/9 19/19/9 20/20/9
f 20/20/10 21/21/10 22/22/10
f 22/22/11 23/23/11 24/24/11
f 24/24/12 25/25/12 26/26/12
f 26/26/13 27/27/13 28/28/13
f 28/28/14 29/29/14 30/30/14
f 30/30/15 31/31/15 32/32/15
f 32/32/16 33/33/16 34/34/16
f 34/34/17 35/35/17 36/36/17
f 36/36/18 37/37/18 38/38/18
f 38/38/19 39/39/19 40/40/19
f 40/40/20 41/41/20 42/42/20
f 42/42/21 43/43/21 44/44/21
f 44/44/22 45/45/22 46/46/22
f 46/46/23 47/47/23 48/48/23
f 48/48/24 49/49/24 50/50/24
f 50/50/25 51/51/25 52/52/25
f 52/52/26 53/53/26 54/54/26
f 54/54/27 55/55/27 56/56/27
f 56/56/28 57/57/28 58/58/28
f 58/58/29 59/59/29 60/60/29
f 60/60/30 61/61/30 62/68/30
f 71/143/31 52/144/31 54/145/31
f 52/144/31 68/146/31 50/147/31
f 50/147/31 67/148/31 48/149/31
f 68/146/31 65/150/31 50/147/31
f 48/149/31 66/151/31 46/152/31
f 46/152/31 69/153/31 44/154/31
f 44/154/31 80/155/31 42/156/31
f 42/156/31 73/64/31 40/63/31
f 40/63/31 74/62/31 38/157/31
f 38/157/31 81/158/31 36/159/31
f 74/62/31 81/158/31 38/157/31
f 36/159/31 83/160/31 34/161/31
f 34/161/31 83/160/31 32/162/31
f 36/159/31 81/158/31 83/160/31
f 32/162/31 82/163/31 30/164/31
f 30/164/31 87/165/31 28/166/31
f 87/165/31 85/167/31 28/166/31
f 28/166/31 85/167/31 26/168/31
f 26/168/31 96/169/31 24/170/31
f 96/169/31 89/171/31 24/170/31
f 24/170/31 89/171/31 22/172/31
f 22/172/31 89/171/31 93/173/31
f 46/152/31 66/151/31 69/153/31
f 42/156/31 80/155/31 73/64/31
f 71/143/31 68/146/31 52/144/31
f 65/150/31 67/148/31 50/147/31
f 26/168/31 85/167/31 96/169/31
f 30/164/31 82/163/31 87/165/31
f 66/151/31 48/149/31 67/148/31
f 32/162/31 83/160/31 82/163/31
f 80/155/31 44/154/31 69/153/31
f 94/174/31 20/175/31 93/173/31
f 93/173/31 20/175/31 22/172/31
f 20/175/31 94/174/31 18/176/31
f 94/174/31 91/177/31 18/176/31
f 18/176/31 92/178/31 16/179/31
f 16/179/31 95/180/31 14/181/31
f 92/178/31 95/180/31 16/179/31
f 14/181/31 88/182/31 12/183/31
f 12/183/31 90/184/31 10/185/31
f 14/181/31 95/180/31 88/182/31
f 10/185/31 84/186/31 8/187/31
f 8/187/31 86/66/31 6/65/31
f 10/185/31 90/184/31 84/186/31
f 6/65/31 77/67/31 4/188/31
f 4/188/31 78/189/31 2/190/31
f 2/190/31 78/189/31 64/191/31
f 64/191/31 76/192/31 62/193/31
f 76/192/31 79/194/31 62/193/31
f 62/193/31 79/194/31 60/195/31
f 60/195/31 75/196/31 58/197/31
f 79/194/31 75/196/31 60/195/31
f 58/197/31 72/198/31 56/199/31
f 56/199/31 70/200/31 54/145/31
f 72/198/31 70/200/31 56/199/31
f 54/145/31 70/200/31 71/143/31
f 4/188/31 77/67/31 78/189/31
f 92/178/31 18/176/31 91/177/31
f 88/182/31 90/184/31 12/183/31
f 64/191/31 78/189/31 76/192/31
f 72/198/31 58/197/31 75/196/31
f 84/186/31 86/66/31 8/187/31
f 62/68/32 63/69/32 64/70/32
f 64/70/33 1/71/33 2/201/33
f 107/202/34 17/203/34 108/204/34
f 108/204/34 17/203/34 15/205/34
f 17/203/34 110/206/34 19/207/34
f 19/207/34 109/208/34 21/209/34
f 21/209/34 104/210/34 23/211/34
f 109/208/34 104/210/34 21/209/34
f 23/211/34 105/212/34 25/213/34
f 25/213/34 101/214/34 27/215/34
f 23/211/34 104/210/34 105/212/34
f 27/215/34 99/216/34 29/217/34
f 29/217/34 102/73/34 31/72/34
f 27/215/34 101/214/34 99/216/34
f 31/72/34 125/74/34 33/218/34
f 33/218/34 125/74/34 35/219/34
f 125/74/34 126/220/34 35/219/34
f 35/219/34 126/220/34 37/221/34
f 37/221/34 127/222/34 39/223/34
f 127/222/34 122/224/34 39/223/34
f 39/223/34 122/224/34 41/225/34
f 41/225/34 119/226/34 43/227/34
f 122/224/34 119/226/34 41/225/34
f 43/227/34 117/228/34 45/229/34
f 45/229/34 114/230/34 47/231/34
f 117/228/34 114/230/34 45/229/34
f 47/231/34 114/230/34 115/232/34
f 17/203/34 107/202/34 110/206/34
f 109/208/34 19/207/34 110/206/34
f 105/212/34 101/214/34 25/213/34
f 37/221/34 126/220/34 127/222/34
f 117/228/34 43/227/34 119/226/34
f 99/216/34 102/73/34 29/217/34
f 113/233/34 49/234/34 115/232/34
f 115/232/34 49/234/34 47/231/34
f 49/234/34 116/235/34 51/236/34
f 51/236/34 120/237/34 53/238/34
f 53/238/34 118/239/34 55/240/34
f 120/237/34 118/239/34 53/238/34
f 55/240/34 128/241/34 57/242/34
f 57/242/34 123/243/34 59/244/34
f 55/240/34 118/239/34 128/241/34
f 59/244/34 121/245/34 61/246/34
f 61/246/34 124/76/34 63/75/34
f 59/244/34 123/243/34 121/245/34
f 63/75/34 97/77/34 1/247/34
f 1/247/34 97/77/34 3/248/34
f 97/77/34 98/249/34 3/248/34
f 3/248/34 98/249/34 5/250/34
f 5/250/34 103/251/34 7/252/34
f 103/251/34 100/253/34 7/252/34
f 7/252/34 100/253/34 9/254/34
f 9/254/34 112/255/34 11/256/34
f 100/253/34 112/255/34 9/254/34
f 11/256/34 106/257/34 13/258/34
f 13/258/34 111/259/34 15/205/34
f 106/257/34 111/259/34 13/258/34
f 15/205/34 111/259/34 108/204/34
f 49/234/34 113/233/34 116/235/34
f 120/237/34 51/236/34 116/235/34
f 128/241/34 123/243/34 57/242/34
f 5/250/34 98/249/34 103/251/34
f 106/257/34 11/256/34 112/255/34
f 121/245/34 124/76/34 61/246/34
f 77/78/17 97/80/17 78/260/17
f 86/81/35 98/79/35 77/78/35
f 84/83/36 103/82/36 86/81/36
f 90/85/37 100/84/37 84/83/37
f 90/85/38 106/88/38 112/86/38
f 88/87/39 111/90/39 106/88/39
f 95/89/40 108/92/40 111/90/40
f 92/91/24 107/94/24 108/92/24
f 91/93/25 110/96/25 107/94/25
f 94/95/41 109/98/41 110/96/41
f 93/97/42 104/100/42 109/98/42
f 89/99/43 105/102/43 104/100/43
f 96/101/44 101/104/44 105/102/44
f 85/103/45 99/106/45 101/104/45
f 87/105/46 102/108/46 99/106/46
f 82/107/33 125/110/33 102/108/33
f 83/109/1 126/112/1 125/110/1
f 81/111/47 127/114/47 126/112/47
f 74/113/48 122/116/48 127/114/48
f 73/115/49 119/118/49 122/116/49
f 69/119/50 119/118/50 80/117/50
f 66/121/51 117/120/51 69/119/51
f 67/123/52 114/122/52 66/121/52
f 65/125/8 115/124/8 67/123/8
f 68/127/9 113/126/9 65/125/9
f 71/129/53 116/128/53 68/127/53
f 70/131/54 120/130/54 71/129/54
f 72/133/55 118/132/55 70/131/55
f 75/135/56 128/134/56 72/133/56
f 79/137/57 123/136/57 75/135/57
f 76/139/58 121/138/58 79/137/58
f 78/141/16 124/140/16 76/139/16
