# Blender v3.5.1 OBJ File: 'mesa.blend'
# www.blender.org
o Cube.005_Cube.022
v 0.301078 0.042707 -0.140616
v 0.301078 0.107305 -0.140616
v 0.298555 0.042707 0.075148
v 0.298555 0.107305 0.075148
v 0.085315 0.042707 -0.143139
v 0.085315 0.107305 -0.143139
v 0.082791 0.042707 0.072624
v 0.082791 0.107305 0.072624
v 0.182389 -0.059384 0.051070
v 0.181804 0.059259 0.051107
v 0.184361 -0.059322 -0.119963
v 0.183776 0.059322 -0.119926
v 0.195165 -0.059321 0.051217
v 0.194580 0.059322 0.051254
v 0.197138 -0.059259 -0.119816
v 0.196552 0.059385 -0.119779
vt 0.625000 0.000000
vt 0.375000 0.250000
vt 0.375000 0.000000
vt 0.625000 0.250000
vt 0.375000 0.500000
vt 0.625000 0.500000
vt 0.375000 0.750000
vt 0.625000 0.750000
vt 0.375000 1.000000
vt 0.125000 0.750000
vt 0.125000 0.500000
vt 0.875000 0.500000
vt 0.625000 0.000000
vt 0.375000 0.250000
vt 0.375000 0.000000
vt 0.625000 0.250000
vt 0.375000 0.500000
vt 0.625000 0.750000
vt 0.375000 0.750000
vt 0.625000 1.000000
vt 0.375000 1.000000
vt 0.125000 0.500000
vt 0.125000 0.750000
vt 0.875000 0.500000
vt 0.625000 0.500000
vt 0.625000 1.000000
vt 0.875000 0.750000
vt 0.875000 0.750000
vn 0.9999 0.0000 0.0117
vn -0.0117 0.0000 0.9999
vn -0.9999 0.0000 -0.0117
vn 0.0117 0.0000 -0.9999
vn 0.0000 -1.0000 0.0000
vn 0.0000 1.0000 0.0000
vn -0.9999 -0.0049 -0.0115
vn 0.0115 0.0004 -0.9999
vn 0.9999 0.0049 0.0115
vn -0.0115 -0.0004 0.9999
vn 0.0049 -1.0000 -0.0003
vn -0.0049 1.0000 0.0003
s off
f 2/1/1 3/2/1 1/3/1
f 4/4/2 7/5/2 3/2/2
f 8/6/3 5/7/3 7/5/3
f 6/8/4 1/9/4 5/7/4
f 7/5/5 1/10/5 3/11/5
f 4/12/6 6/8/6 8/6/6
f 10/13/7 11/14/7 9/15/7
f 12/16/8 15/17/8 11/14/8
f 15/17/9 14/18/9 13/19/9
f 13/19/10 10/20/10 9/21/10
f 11/22/11 13/19/11 9/23/11
f 12/24/12 14/18/12 16/25/12
f 2/1/1 4/4/1 3/2/1
f 4/4/2 8/6/2 7/5/2
f 8/6/3 6/8/3 5/7/3
f 6/8/4 2/26/4 1/9/4
f 7/5/5 5/7/5 1/10/5
f 4/12/6 2/27/6 6/8/6
f 10/13/7 12/16/7 11/14/7
f 12/16/8 16/25/8 15/17/8
f 15/17/9 16/25/9 14/18/9
f 13/19/10 14/18/10 10/20/10
f 11/22/11 15/17/11 13/19/11
f 12/24/12 10/28/12 14/18/12
