# Blender v3.5.1 OBJ File: 'mesa.blend'
# www.blender.org
o Cube.001
v 0.173244 0.094180 -0.064870
v 0.219944 0.093493 -0.006790
v 0.175096 0.094099 -0.005393
v 0.220136 0.131277 -0.017033
v 0.218093 0.093575 -0.066268
v 0.218923 0.131371 -0.056031
v 0.221197 0.323040 -0.066049
v 0.223050 0.322958 -0.006572
v 0.219923 0.205143 -0.055884
v 0.178201 0.323563 -0.005174
v 0.175287 0.131879 -0.015634
v 0.174074 0.131973 -0.054630
v 0.175074 0.205744 -0.054483
v 0.176287 0.205650 -0.015486
v 0.176349 0.323644 -0.064651
v 0.221137 0.205049 -0.016887
vt 0.625000 0.000000
vt 0.375000 0.250000
vt 0.375000 0.000000
vt 0.418210 0.291151
vt 0.625000 0.250000
vt 0.582126 0.291195
vt 0.625000 0.500000
vt 0.375000 0.500000
vt 0.581804 0.371569
vt 0.375000 0.750000
vt 0.625000 1.000000
vt 0.418196 0.958855
vt 0.582112 0.958810
vt 0.581790 0.878437
vt 0.417874 0.878481
vt 0.125000 0.750000
vt 0.125000 0.500000
vt 0.875000 0.500000
vt 0.625000 0.750000
vt 0.375000 0.185046
vt 0.625000 0.064933
vt 0.375000 0.064925
vt 0.625000 0.685046
vt 0.375000 0.564933
vt 0.375000 0.685054
vt 0.125000 0.564954
vt 0.125000 0.685075
vt 0.875000 0.564946
vt 0.875000 0.685067
vt 0.417888 0.371525
vt 0.375000 1.000000
vt 0.875000 0.750000
vt 0.625000 0.185054
vt 0.625000 0.564925
vn -0.0135 -0.9999 -0.0009
vn 0.9994 -0.0135 -0.0311
vn 0.0135 0.9999 0.0010
vn -0.9994 0.0135 0.0311
vn 0.0311 -0.0014 0.9995
vn -0.0311 0.0014 -0.9995
vn 0.0135 0.9999 0.0020
vn -0.0135 -0.9999 -0.0020
vn -0.0312 0.0024 -0.9995
vn 0.0312 -0.0024 0.9995
vn -0.0135 -0.9999 -0.0010
vn 0.9994 -0.0135 -0.0313
vn 0.9994 -0.0135 -0.0312
vn 0.0135 0.9999 0.0009
vn -0.9994 0.0135 0.0312
s off
f 1/1/1 2/2/1 3/3/1
f 4/4/2 5/5/2 6/6/2
f 7/7/2 8/8/2 9/9/2
f 7/7/3 10/10/3 8/8/3
f 1/11/4 11/12/4 12/13/4
f 13/14/4 14/15/4 10/10/4
f 8/8/5 3/16/5 2/17/5
f 5/18/6 15/19/6 7/7/6
f 4/20/7 12/21/7 11/22/7
f 13/23/8 16/24/8 14/25/8
f 14/25/9 4/26/9 11/27/9
f 6/28/10 13/23/10 12/29/10
f 1/1/11 5/5/11 2/2/11
f 4/4/2 2/2/2 5/5/2
f 6/6/12 5/5/12 9/9/12
f 5/5/13 7/7/13 9/9/13
f 8/8/2 2/2/2 16/30/2
f 2/2/2 4/4/2 16/30/2
f 8/8/2 16/30/2 9/9/2
f 7/7/14 15/19/14 10/10/14
f 1/11/4 3/31/4 11/12/4
f 14/15/15 11/12/15 3/31/15
f 15/19/4 1/11/4 13/14/4
f 1/11/15 12/13/15 13/14/15
f 14/15/15 3/31/15 10/10/15
f 15/19/4 13/14/4 10/10/4
f 8/8/5 10/10/5 3/16/5
f 5/18/6 1/32/6 15/19/6
f 4/20/7 6/33/7 12/21/7
f 13/23/8 9/34/8 16/24/8
f 14/25/9 16/24/9 4/26/9
f 6/28/10 9/34/10 13/23/10
