# Blender v3.5.1 OBJ File: 'mesa.blend'
# www.blender.org
o Cube.004_Cube.007
v -1.641010 -0.985849 0.936219
v -1.641010 0.018015 0.936219
v -1.714599 -0.985849 0.934712
v -1.714599 0.018015 0.934712
v -1.639922 -0.985849 0.883118
v -1.639922 0.018015 0.883118
v -1.713511 -0.985849 0.881611
v -1.713511 0.018015 0.881611
v -1.602070 -0.985849 -0.964835
v -1.602070 0.018015 -0.964835
v -1.675659 -0.985849 -0.966342
v -1.675659 0.018015 -0.966342
v -1.600982 -0.985849 -1.017935
v -1.600982 0.018015 -1.017935
v -1.674571 -0.985849 -1.019443
v -1.674571 0.018015 -1.019443
v 1.242181 -0.985849 -0.906574
v 1.242181 0.018015 -0.906574
v 1.168591 -0.985849 -0.908082
v 1.168591 0.018015 -0.908082
v 1.243268 -0.985849 -0.959675
v 1.243268 0.018015 -0.959675
v 1.169679 -0.985849 -0.961182
v 1.169679 0.018015 -0.961182
v 1.203124 -0.985849 1.000178
v 1.203124 0.018015 1.000178
v 1.129534 -0.985849 0.998670
v 1.129534 0.018015 0.998670
v 1.204211 -0.985849 0.947077
v 1.204211 0.018015 0.947077
v 1.130622 -0.985849 0.945569
v 1.130622 0.018015 0.945569
v -1.650203 -0.978351 0.880071
v -1.650203 -0.909346 0.880071
v -1.701433 -0.978351 0.879022
v -1.701433 -0.909346 0.879022
v -1.612417 -0.978351 -0.964611
v -1.612417 -0.909346 -0.964611
v -1.663647 -0.978351 -0.965660
v -1.663647 -0.909346 -0.965660
v 1.196194 -0.978351 0.938376
v 1.196194 -0.909346 0.938376
v 1.144964 -0.978351 0.937326
v 1.144964 -0.909346 0.937326
v 1.233979 -0.978351 -0.906306
v 1.233979 -0.909346 -0.906306
v 1.182750 -0.978351 -0.907356
v 1.182750 -0.909346 -0.907356
vt 0.625000 0.000000
vt 0.375000 0.250000
vt 0.375000 0.000000
vt 0.625000 0.250000
vt 0.375000 0.500000
vt 0.625000 0.500000
vt 0.375000 0.750000
vt 0.625000 0.750000
vt 0.375000 1.000000
vt 0.125000 0.750000
vt 0.125000 0.500000
vt 0.875000 0.500000
vt 0.625000 0.000000
vt 0.375000 0.250000
vt 0.375000 0.000000
vt 0.625000 0.250000
vt 0.375000 0.500000
vt 0.625000 0.500000
vt 0.375000 0.750000
vt 0.625000 0.750000
vt 0.375000 1.000000
vt 0.125000 0.750000
vt 0.125000 0.500000
vt 0.875000 0.500000
vt 0.625000 0.000000
vt 0.375000 0.250000
vt 0.375000 0.000000
vt 0.625000 0.250000
vt 0.375000 0.500000
vt 0.625000 0.500000
vt 0.375000 0.750000
vt 0.625000 0.750000
vt 0.375000 1.000000
vt 0.125000 0.750000
vt 0.125000 0.500000
vt 0.875000 0.500000
vt 0.625000 0.000000
vt 0.375000 0.250000
vt 0.375000 0.000000
vt 0.625000 0.250000
vt 0.375000 0.500000
vt 0.625000 0.500000
vt 0.375000 0.750000
vt 0.625000 0.750000
vt 0.375000 1.000000
vt 0.125000 0.750000
vt 0.125000 0.500000
vt 0.875000 0.500000
vt 0.625000 0.000000
vt 0.375000 0.250000
vt 0.375000 0.000000
vt 0.625000 0.250000
vt 0.375000 0.500000
vt 0.625000 0.500000
vt 0.375000 0.750000
vt 0.625000 0.750000
vt 0.375000 1.000000
vt 0.125000 0.750000
vt 0.125000 0.500000
vt 0.875000 0.500000
vt 0.625000 0.000000
vt 0.375000 0.250000
vt 0.375000 0.000000
vt 0.625000 0.250000
vt 0.375000 0.500000
vt 0.625000 0.500000
vt 0.375000 0.750000
vt 0.625000 0.750000
vt 0.375000 1.000000
vt 0.125000 0.750000
vt 0.125000 0.500000
vt 0.875000 0.500000
vt 0.625000 1.000000
vt 0.875000 0.750000
vt 0.625000 1.000000
vt 0.875000 0.750000
vt 0.625000 1.000000
vt 0.875000 0.750000
vt 0.625000 1.000000
vt 0.875000 0.750000
vt 0.625000 1.000000
vt 0.875000 0.750000
vt 0.625000 1.000000
vt 0.875000 0.750000
vn -0.0205 0.0000 0.9998
vn -0.9998 0.0000 -0.0205
vn 0.0205 0.0000 -0.9998
vn 0.9998 0.0000 0.0205
vn 0.0000 -1.0000 0.0000
vn 0.0000 1.0000 -0.0000
s off
f 2/1/1 3/2/1 1/3/1
f 4/4/2 7/5/2 3/2/2
f 8/6/3 5/7/3 7/5/3
f 6/8/4 1/9/4 5/7/4
f 7/5/5 1/10/5 3/11/5
f 4/12/6 6/8/6 8/6/6
f 10/13/1 11/14/1 9/15/1
f 12/16/2 15/17/2 11/14/2
f 16/18/3 13/19/3 15/17/3
f 14/20/4 9/21/4 13/19/4
f 15/17/5 9/22/5 11/23/5
f 12/24/6 14/20/6 16/18/6
f 18/25/1 19/26/1 17/27/1
f 20/28/2 23/29/2 19/26/2
f 24/30/3 21/31/3 23/29/3
f 22/32/4 17/33/4 21/31/4
f 23/29/5 17/34/5 19/35/5
f 20/36/6 22/32/6 24/30/6
f 26/37/1 27/38/1 25/39/1
f 28/40/2 31/41/2 27/38/2
f 32/42/3 29/43/3 31/41/3
f 30/44/4 25/45/4 29/43/4
f 31/41/5 25/46/5 27/47/5
f 28/48/6 30/44/6 32/42/6
f 34/49/1 35/50/1 33/51/1
f 36/52/2 39/53/2 35/50/2
f 40/54/3 37/55/3 39/53/3
f 38/56/4 33/57/4 37/55/4
f 39/53/5 33/58/5 35/59/5
f 36/60/6 38/56/6 40/54/6
f 42/61/1 43/62/1 41/63/1
f 44/64/2 47/65/2 43/62/2
f 48/66/3 45/67/3 47/65/3
f 46/68/4 41/69/4 45/67/4
f 47/65/5 41/70/5 43/71/5
f 44/72/6 46/68/6 48/66/6
f 2/1/1 4/4/1 3/2/1
f 4/4/2 8/6/2 7/5/2
f 8/6/3 6/8/3 5/7/3
f 6/8/4 2/73/4 1/9/4
f 7/5/5 5/7/5 1/10/5
f 4/12/6 2/74/6 6/8/6
f 10/13/1 12/16/1 11/14/1
f 12/16/2 16/18/2 15/17/2
f 16/18/3 14/20/3 13/19/3
f 14/20/4 10/75/4 9/21/4
f 15/17/5 13/19/5 9/22/5
f 12/24/6 10/76/6 14/20/6
f 18/25/1 20/28/1 19/26/1
f 20/28/2 24/30/2 23/29/2
f 24/30/3 22/32/3 21/31/3
f 22/32/4 18/77/4 17/33/4
f 23/29/5 21/31/5 17/34/5
f 20/36/6 18/78/6 22/32/6
f 26/37/1 28/40/1 27/38/1
f 28/40/2 32/42/2 31/41/2
f 32/42/3 30/44/3 29/43/3
f 30/44/4 26/79/4 25/45/4
f 31/41/5 29/43/5 25/46/5
f 28/48/6 26/80/6 30/44/6
f 34/49/1 36/52/1 35/50/1
f 36/52/2 40/54/2 39/53/2
f 40/54/3 38/56/3 37/55/3
f 38/56/4 34/81/4 33/57/4
f 39/53/5 37/55/5 33/58/5
f 36/60/6 34/82/6 38/56/6
f 42/61/1 44/64/1 43/62/1
f 44/64/2 48/66/2 47/65/2
f 48/66/3 46/68/3 45/67/3
f 46/68/4 42/83/4 41/69/4
f 47/65/5 45/67/5 41/70/5
f 44/72/6 42/84/6 46/68/6
