# Blender v3.5.1 OBJ File: 'mesa.blend'
# www.blender.org
o Cube
v 1.225378 0.044756 1.013350
v 1.225378 -0.033810 1.013350
v -1.792526 0.044756 0.951533
v -1.792526 -0.033810 0.951533
v 1.266209 0.044756 -0.980023
v 1.266209 -0.033810 -0.980023
v -1.751695 0.044756 -1.041841
v -1.751695 -0.033810 -1.041841
v 0.726907 0.044756 -0.905123
v 0.745715 0.044756 -0.904738
v 0.708403 0.044756 0.916814
v 0.689595 0.044756 0.916429
v 0.708403 -0.033810 0.916814
v 0.689595 -0.033810 0.916429
v 0.726907 -0.033810 -0.905123
v 0.745715 -0.033810 -0.904738
v 0.200331 0.044756 -0.915909
v 0.219139 0.044756 -0.915524
v 0.181827 0.044756 0.906028
v 0.163019 0.044756 0.905643
v 0.181827 -0.033810 0.906028
v 0.163019 -0.033810 0.905643
v 0.219139 -0.033810 -0.915524
v 0.200331 -0.033810 -0.915909
v -0.323237 0.044756 -0.926634
v -0.304428 0.044756 -0.926249
v -0.341740 0.044756 0.895303
v -0.360548 0.044756 0.894918
v -0.341740 -0.033810 0.895303
v -0.360548 -0.033810 0.894918
v -0.304428 -0.033810 -0.926249
v -0.323237 -0.033810 -0.926634
vt 0.625000 0.000000
vt 0.375000 0.000000
vt 0.375000 0.250000
vt 0.625000 0.250000
vt 0.375000 0.500000
vt 0.625000 0.500000
vt 0.375000 0.750000
vt 0.625000 0.750000
vt 0.375000 1.000000
vt 0.364225 0.707029
vt 0.135775 0.707029
vt 0.125000 0.500000
vt 0.135775 0.618478
vt 0.135775 0.661849
vt 0.364225 0.661849
vt 0.364225 0.620036
vt 0.135775 0.705471
vt 0.364225 0.705471
vt 0.364225 0.663408
vt 0.875000 0.750000
vt 0.864226 0.707029
vt 0.635775 0.707029
vt 0.635774 0.618478
vt 0.875000 0.500000
vt 0.864225 0.661849
vt 0.864225 0.620036
vt 0.635775 0.620036
vt 0.864225 0.705471
vt 0.864225 0.663408
vt 0.635774 0.663408
vt 0.562784 0.000000
vt 0.472069 0.000000
vt 0.472069 0.250000
vt 0.562784 0.250000
vt 0.472069 0.500000
vt 0.562784 0.750000
vt 0.562784 0.500000
vt 0.562784 1.000000
vt 0.472069 0.750000
vt 0.562784 0.000000
vt 0.472069 0.000000
vt 0.472069 0.250000
vt 0.562784 0.250000
vt 0.472069 0.500000
vt 0.562784 0.750000
vt 0.562784 0.500000
vt 0.562784 1.000000
vt 0.472069 0.750000
vt 0.562784 0.000000
vt 0.472069 0.000000
vt 0.472069 0.250000
vt 0.562784 0.250000
vt 0.472069 0.500000
vt 0.562784 0.750000
vt 0.562784 0.500000
vt 0.562784 1.000000
vt 0.472069 0.750000
vt 0.625000 1.000000
vt 0.125000 0.750000
vt 0.135775 0.663408
vt 0.135775 0.620036
vt 0.364226 0.618478
vt 0.635774 0.705471
vt 0.635774 0.661849
vt 0.864225 0.618478
vt 0.472069 1.000000
vt 0.472069 1.000000
vt 0.472069 1.000000
vn -0.0205 0.0000 0.9998
vn -0.9998 0.0000 -0.0205
vn 0.0205 0.0000 -0.9998
vn 0.9998 0.0000 0.0205
vn 0.0000 1.0000 -0.0000
vn 0.0000 -1.0000 -0.0000
s off
f 2/1/1 1/2/1 3/3/1
f 4/4/2 3/3/2 7/5/2
f 8/6/3 7/5/3 5/7/3
f 6/8/4 5/7/4 1/9/4
f 5/7/5 10/10/5 11/11/5
f 3/12/5 28/13/5 7/5/5
f 20/14/5 17/15/5 26/16/5
f 12/17/5 9/18/5 18/19/5
f 2/20/6 13/21/6 16/22/6
f 8/6/6 32/23/6 4/24/6
f 22/25/6 29/26/6 31/27/6
f 14/28/6 21/29/6 23/30/6
f 11/31/3 13/32/3 14/33/3
f 12/34/4 14/33/4 15/35/4
f 10/36/1 9/37/1 15/35/1
f 11/38/2 10/36/2 16/39/2
f 19/40/3 21/41/3 22/42/3
f 20/43/4 22/42/4 24/44/4
f 18/45/1 17/46/1 24/44/1
f 19/47/2 18/45/2 23/48/2
f 27/49/3 29/50/3 30/51/3
f 28/52/4 30/51/4 32/53/4
f 26/54/1 25/55/1 32/53/1
f 27/56/2 26/54/2 31/57/2
f 2/1/1 3/3/1 4/4/1
f 4/4/2 7/5/2 8/6/2
f 8/6/3 5/7/3 6/8/3
f 6/8/4 1/9/4 2/58/4
f 5/7/5 11/11/5 1/59/5
f 12/17/5 1/59/5 11/11/5
f 7/5/5 26/16/5 5/7/5
f 5/7/5 9/18/5 10/10/5
f 5/7/5 18/19/5 9/18/5
f 12/17/5 19/60/5 1/59/5
f 1/59/5 27/61/5 3/12/5
f 19/60/5 20/14/5 1/59/5
f 20/14/5 27/61/5 1/59/5
f 5/7/5 17/15/5 18/19/5
f 5/7/5 26/16/5 17/15/5
f 7/5/5 25/62/5 26/16/5
f 28/13/5 3/12/5 27/61/5
f 7/5/5 28/13/5 25/62/5
f 20/14/5 26/16/5 27/61/5
f 12/17/5 18/19/5 19/60/5
f 2/20/6 16/22/6 6/8/6
f 15/63/6 6/8/6 16/22/6
f 4/24/6 29/26/6 2/20/6
f 2/20/6 14/28/6 13/21/6
f 2/20/6 21/29/6 14/28/6
f 15/63/6 23/30/6 6/8/6
f 6/8/6 31/27/6 8/6/6
f 23/30/6 24/64/6 6/8/6
f 24/64/6 31/27/6 6/8/6
f 2/20/6 22/25/6 21/29/6
f 2/20/6 29/26/6 22/25/6
f 4/24/6 30/65/6 29/26/6
f 32/23/6 8/6/6 31/27/6
f 4/24/6 32/23/6 30/65/6
f 22/25/6 31/27/6 24/64/6
f 14/28/6 23/30/6 15/63/6
f 11/31/3 14/33/3 12/34/3
f 12/34/4 15/35/4 9/37/4
f 10/36/1 15/35/1 16/39/1
f 11/38/2 16/39/2 13/66/2
f 19/40/3 22/42/3 20/43/3
f 20/43/4 24/44/4 17/46/4
f 18/45/1 24/44/1 23/48/1
f 19/47/2 23/48/2 21/67/2
f 27/49/3 30/51/3 28/52/3
f 28/52/4 32/53/4 25/55/4
f 26/54/1 32/53/1 31/57/1
f 27/56/2 31/57/2 29/68/2
